<svg xmlns="http://www.w3.org/2000/svg" width="320" height="43.921" viewBox="0 0 320 43.921">
    <defs>
        <style>
            .cls-1{fill:#1b1617}
        </style>
    </defs>
    <g id="img_t_bi" transform="translate(-260.945 -180.816)">
        <g id="그룹_411">
            <path id="패스_2900" d="M290.582 184.663h8.109v15.783h3.975v-15.783h8.108v-3.078h-20.192z" class="cls-1"/>
            <path id="패스_2901" d="M269.628 181.585l-8.683 18.861h4.011l2.123-4.729.024-.055h9.13l.025.055 2.122 4.729h4.063l-8.684-18.861zm5.224 11h-6.368l.06-.132 3.039-6.773.085-.19.086.19 3.039 6.773z" class="cls-1"/>
            <path id="패스_2902" d="M332.795 200.447h3.837l6.522-18.861h-4l-4.361 13.386-.089.273-.089-.273-4.361-13.386h-3.97l-4.361 13.386-.089.273-.089-.273-4.361-13.386h-4l6.523 18.861h3.862l4.415-12.946.088-.259.089.259 4.415 12.946z" class="cls-1"/>
            <path id="패스_2903" d="M347.913 198.393a11.855 11.855 0 0 0 15.315 0 9.644 9.644 0 0 0 3.281-7.312 10.233 10.233 0 0 0-2.817-7.027 11.849 11.849 0 0 0-16.243 0 10.24 10.24 0 0 0-2.812 7.027 9.648 9.648 0 0 0 3.276 7.312zm7.655-14.207a7.051 7.051 0 0 1 7 6.895 6.627 6.627 0 0 1-2.043 4.758 7.1 7.1 0 0 1-9.915 0 6.631 6.631 0 0 1-2.038-4.758 7.046 7.046 0 0 1 6.996-6.895z" class="cls-1"/>
            <path id="패스_2904" d="M501.76 197.3v-15.715h-3.805v18.861H514.3V197.3h-12.54z" class="cls-1"/>
            <path id="패스_2905" d="M459.863 197.368h-12.091v-5.384h11.385v-3.078h-11.385v-4.3h11.738v-3.078h-15.543v18.915h15.9z" class="cls-1"/>
            <path id="패스_2906" d="M568.947 197.368h-.093v-5.384h11.385v-3.078h-11.386v-4.3h11.738v-3.078h-15.543v18.915h15.9v-3.079z" class="cls-1"/>
            <path id="패스_2907" d="M551.92 197.859h-.061a7.217 7.217 0 0 1-7.256-6.818 6.646 6.646 0 0 1 1.944-4.794 7.264 7.264 0 0 1 5.2-2.079h.057a9.5 9.5 0 0 1 6.758 2.832l1.846-2.917a13.137 13.137 0 0 0-8.647-3.27 12.092 12.092 0 0 0-7.339 2.654 9.6 9.6 0 0 0-3.718 7.654c0 6.235 5.4 9.778 10.727 10.056a12.2 12.2 0 0 0 9.137-3.427l-1.976-2.861a8.733 8.733 0 0 1-6.672 2.97z" class="cls-1"/>
            <path id="패스_2908" d="M479.162 194.3h6.611a10.238 10.238 0 0 0 5.328-1.163 5.627 5.627 0 0 0 2.6-5.219c0-2.446-.85-4.205-2.527-5.229a10.284 10.284 0 0 0-5.375-1.154h-10.705v18.954h4.068zm0-9.594h7.138a3.786 3.786 0 0 1 2.331.773 3.006 3.006 0 0 1 1.112 2.439 3.234 3.234 0 0 1-3.443 3.211h-7.143z" class="cls-1"/>
            <path id="패스_2909" d="M434.964 187.329l.027-.045h.229v13.162h3.805v-18.861h-4.806l-5.967 10.093-.08.136-.081-.136-5.982-10.093h-4.79v18.861h3.805v-13.162h.229l.027.045 5.745 9.425h2.092z" class="cls-1"/>
            <path id="패스_2910" d="M379.107 198.02h-.244a13.657 13.657 0 0 1-7.711-3.067l-1.437 3.267a17.5 17.5 0 0 0 9.19 2.979c3.343 0 5.925-.833 7.467-2.411a5.282 5.282 0 0 0 1.5-3.907c-.061-2.646-1.737-4.245-5.276-5.033-.775-.173-2.075-.44-3.222-.675-.619-.127-1.2-.246-1.646-.34-1.818-.38-3.594-.866-3.616-2.245-.017-1.209 1.317-2.465 3.9-2.524h.236a12.694 12.694 0 0 1 7.871 2.936l1.554-3.046a14.879 14.879 0 0 0-9.147-3.124 9.891 9.891 0 0 0-6.811 2.57 4.965 4.965 0 0 0-1.485 3.707c.1 4.012 4.639 5.1 9.682 5.952h.024c1.974.332 4.016.674 4.088 2.275a1.814 1.814 0 0 1-.563 1.361 6.186 6.186 0 0 1-4.354 1.325z" class="cls-1"/>
            <path id="패스_2911" d="M526.467 181.585l-8.683 18.861h4.011l2.122-4.729.025-.055h9.13l.025.055 2.122 4.729h4.063l-8.682-18.861zm5.224 11h-6.368l.059-.132 3.04-6.773.085-.19.086.19 3.039 6.773z" class="cls-1"/>
            <path id="패스_2912" d="M410.331 184.054a11.848 11.848 0 0 0-16.242 0 10.236 10.236 0 0 0-2.813 7.027 9.649 9.649 0 0 0 3.277 7.312 11.853 11.853 0 0 0 15.314 0 9.644 9.644 0 0 0 3.281-7.312 10.233 10.233 0 0 0-2.817-7.027zm-3.163 11.785a7.1 7.1 0 0 1-9.916 0 6.634 6.634 0 0 1-2.037-4.758 7 7 0 0 1 13.995 0 6.63 6.63 0 0 1-2.042 4.758z" class="cls-1"/>
        </g>
        <g id="그룹_412">
            <path id="패스_2913" d="M337.8 212.431a6.154 6.154 0 1 0 0 12.306 5.864 5.864 0 0 0 4.9-2.4l.079-.117-1.739-1.268-.028-.021-.086.124a3.693 3.693 0 0 1-3.127 1.6 4.067 4.067 0 0 1 0-8.132 3.742 3.742 0 0 1 3.135 1.608l.082.119 1.784-1.182.027-.019-.073-.119a5.728 5.728 0 0 0-4.954-2.499z" class="cls-1"/>
            <path id="패스_2914" d="M351 212.431a6.154 6.154 0 1 0 6.25 6.153 6 6 0 0 0-6.25-6.153zm0 10.219a4.067 4.067 0 1 1 3.984-4.066A3.852 3.852 0 0 1 351 222.65z" class="cls-1"/>
            <path id="패스_2915" d="M360.094 224.522h2.174v-4.948h6.054v-2.061h-6.054v-2.8h6.437v-2.061h-8.611z" class="cls-1"/>
            <path id="패스_2916" d="M371.553 224.522h2.174v-4.948h6.054v-2.061h-6.054v-2.8h6.437v-2.061h-8.612z" class="cls-1"/>
            <path id="패스_2917" d="M385.185 219.565h6.1v-2.045h-6.1v-2.828h6.515v-2.046h-8.687v11.876H392v-2.045h-6.811z" class="cls-1"/>
            <path id="패스_2918" d="M397.143 219.565h6.1v-2.045h-6.1v-2.828h6.512v-2.046h-8.687v11.876h8.985v-2.045h-6.811z" class="cls-1"/>
            <path id="패스_2919" d="M419.53 221.549c.071-.106.151-.227.223-.346l1.535-2.387.019-.029-1.636-1.014-.027-.017-1.59 2.446-1.9-1.818c1.109-.828 2.127-1.775 2.127-3.085 0-1.71-1.347-2.859-3.352-2.859-1.952 0-3.369 1.227-3.369 2.917a3.968 3.968 0 0 0 1.5 2.932 4.267 4.267 0 0 0-2 3.241c0 2 1.369 3.2 3.66 3.2a4.72 4.72 0 0 0 3.528-1.52l1.376 1.3.01.009h2.937l-3.065-2.931zm-4.605-7.181c.764 0 1.2.37 1.2 1.014 0 .592-.657 1.153-1.372 1.671-.833-.811-1.026-1.111-1.026-1.588a1.046 1.046 0 0 1 1.198-1.097zm-.1 8.44c-.954 0-1.6-.537-1.6-1.336a2.692 2.692 0 0 1 1.229-1.85l2.369 2.246a2.517 2.517 0 0 1-1.998.94z" class="cls-1"/>
            <path id="패스_2920" d="M432.777 212.646H428v11.876h4.776c3.709 0 6.2-2.386 6.2-5.938s-2.49-5.938-6.199-5.938zm0 9.815h-2.6v-7.753h2.6c2.5 0 3.934 1.412 3.934 3.876a3.588 3.588 0 0 1-3.934 3.877z" class="cls-1"/>
            <path id="패스_2921" d="M444 219.565h6.1v-2.045H444v-2.828h6.513v-2.046h-8.686v11.876h8.984v-2.045H444z" class="cls-1"/>
            <path id="패스_2922" d="M458.919 217.6l-.807-.106c-1.653-.235-2.3-.629-2.3-1.4 0-.962.972-1.584 2.476-1.584a5.9 5.9 0 0 1 3.194.971l.125.079 1.094-1.731.018-.028-.12-.078a7.53 7.53 0 0 0-4.293-1.274c-2.838 0-4.744 1.512-4.744 3.762 0 2.355 1.948 3.119 3.583 3.346l.907.125c1.75.236 2.5.66 2.5 1.418 0 .923-1.06 1.568-2.577 1.568a5.8 5.8 0 0 1-3.557-1.236l-.123-.113-1.177 1.71-.017.025.1.085a7.742 7.742 0 0 0 4.784 1.591c3.328 0 4.817-1.906 4.817-3.795-.002-1.86-1.307-2.981-3.883-3.335z" class="cls-1"/>
            <path id="패스_2923" d="M470.786 217.6l-.807-.106c-1.654-.235-2.3-.629-2.3-1.4 0-.962.972-1.584 2.477-1.584a5.9 5.9 0 0 1 3.194.971l.124.079 1.1-1.731.018-.028-.12-.078a7.535 7.535 0 0 0-4.294-1.274c-2.838 0-4.744 1.512-4.744 3.762 0 2.355 1.949 3.119 3.583 3.346l.908.125c1.75.236 2.5.66 2.5 1.418 0 .923-1.06 1.568-2.577 1.568a5.8 5.8 0 0 1-3.558-1.236l-.124-.113-1.175 1.71-.017.025.1.085a7.742 7.742 0 0 0 4.784 1.591c3.328 0 4.818-1.906 4.818-3.795-.008-1.86-1.314-2.981-3.89-3.335z" class="cls-1"/>
            <path id="패스_2924" d="M479.689 219.565h6.1v-2.045h-6.1v-2.828h6.511v-2.046h-8.686v11.876h8.986v-2.045h-6.81z" class="cls-1"/>
            <path id="패스_2925" d="M498.692 216.143c0-2.255-1.519-3.5-4.276-3.5h-4.943v11.876h2.173v-4.874h1.781l3.08 4.858.009.016h2.5l-3.294-5a3.42 3.42 0 0 0 2.97-3.376zm-7.046 1.518v-2.969h2.719c1.418 0 2.078.461 2.078 1.451 0 1.036-.66 1.518-2.078 1.518z" class="cls-1"/>
            <path id="패스_2926" d="M500.623 214.708h3.777v9.814h2.174v-9.814h3.772v-2.061h-9.719z" class="cls-1"/>
        </g>
    </g>
</svg>
